HIERARCHY
ROOT hip
{
	OFFSET 0.000000 0.000000 0.000000 
	CHANNELS 6 Xposition Yposition Zposition Xrotation Zrotation Yrotation
	JOINT abdomen
	{
		OFFSET 0.000000 3.402643 0.000000 
		CHANNELS 3 Xrotation Zrotation Yrotation
		JOINT chest
		{
			OFFSET 0.000000 8.438565 -0.680529 
			CHANNELS 3 Xrotation Zrotation Yrotation
			JOINT neck
			{
				OFFSET 0.000000 10.207942 -0.272212 
				CHANNELS 3 Xrotation Zrotation Yrotation
				JOINT head
				{
					OFFSET 0.000000 3.130431 0.000000 
					CHANNELS 3 Xrotation Zrotation Yrotation
					End Site
					{
						OFFSET 0.000000 3.130435 0.000000 
					}
				}
			}
			JOINT lCollar
			{
				OFFSET 3.470700 6.669187 -0.816635 
				CHANNELS 3 Yrotation Zrotation Xrotation
				JOINT lShldr
				{
					OFFSET 3.198488 0.000000 0.000000 
					CHANNELS 3 Zrotation Yrotation Xrotation
					JOINT lForeArm
					{
						OFFSET 10.139888 0.000000 0.000000 
						CHANNELS 3 Yrotation Zrotation Xrotation
						JOINT lHand
						{
							OFFSET 8.370511 0.000000 0.000000 
							CHANNELS 3 Zrotation Yrotation Xrotation
							End Site
							{
								OFFSET 4.083176 0.000000 0.000000 
							}
						}
					}
				}
			}
			JOINT rCollar
			{
				OFFSET -3.470700 6.669187 -0.816635 
				CHANNELS 3 Yrotation Zrotation Xrotation
				JOINT rShldr
				{
					OFFSET -3.198488 0.000000 0.000000 
					CHANNELS 3 Zrotation Yrotation Xrotation
					JOINT rForeArm
					{
						OFFSET -10.139888 0.000000 0.000000 
						CHANNELS 3 Yrotation Zrotation Xrotation
						JOINT rHand
						{
							OFFSET -8.370511 0.000000 0.000000 
							CHANNELS 3 Zrotation Yrotation Xrotation
							End Site
							{
								OFFSET -4.083176 0.000000 0.000000 
							}
						}
					}
				}
			}
		}
	}
	JOINT lThigh
	{
		OFFSET 5.308129 -1.633274 1.361059 
		CHANNELS 3 Xrotation Zrotation Yrotation
		JOINT lShin
		{
			OFFSET -2.041588 -20.007561 0.000000 
			CHANNELS 3 Xrotation Zrotation Yrotation
			JOINT lFoot
			{
				OFFSET 0.000000 -19.190928 -1.224953 
				CHANNELS 3 Xrotation Yrotation Zrotation
				End Site
				{
					OFFSET 0.000000 -2.449906 4.627600 
				}
			}
		}
	}
	JOINT rThigh
	{
		OFFSET -5.308129 -1.633274 1.361059 
		CHANNELS 3 Xrotation Zrotation Yrotation
		JOINT rShin
		{
			OFFSET 2.041588 -20.007561 0.000000 
			CHANNELS 3 Xrotation Zrotation Yrotation
			JOINT rFoot
			{
				OFFSET 0.000000 -19.190928 -1.224953 
				CHANNELS 3 Xrotation Yrotation Zrotation
				End Site
				{
					OFFSET 0.000000 -2.449906 4.627600 
				}
			}
		}
	}
}
MOTION
Frames: 17
Frame Time: 0.033333
88.694984 57.289574 -4.363294 -1.240234 -2.470703 75.790695 23.701174 -0.800781 -6.875136 -11.943359 5.097657 -5.790148 -28.300781 -6.035156 -15.439453 29.218750 7.724609 -14.988922 -8.310547 -4.052734 24.981157 -28.867188 -42.587891 -62.262466 -81.523438 -2.490234 -86.767151 17.783203 17.080078 5.325135 38.691406 6.337891 24.979389 31.279295 36.367188 -55.097652 73.085938 2.480469 -87.119141 -14.482421 2.587891 -0.858934 -32.771698 9.344564 16.515299 47.648895 -2.757917 -13.307915 -31.640257 3.176651 -10.266937 -45.171024 -6.347148 2.554957 97.799896 -1.308102 11.524718 -17.729906 7.617220 14.442740 
88.971130 58.111298 -4.361440 -3.173828 -2.285156 75.156250 23.701174 -0.800781 -6.875136 -11.943359 5.097657 -5.790148 -28.300781 -6.035156 -15.439453 29.218750 7.724609 -14.988922 -8.261718 -1.240234 25.000000 -28.203125 -42.939453 -63.825008 -83.457031 -2.470703 -86.728096 17.783203 17.080078 5.325135 38.007813 8.330079 24.979053 32.441406 36.884766 -52.943356 72.734375 2.480469 -87.119568 -14.482421 2.587891 -0.858934 -29.939102 10.574605 16.346134 44.459503 -2.931328 -12.967695 -31.608788 3.295487 -10.178994 -50.852085 -3.906309 1.468404 102.700920 -1.485899 12.327690 -17.738062 7.638560 14.456061 
89.271065 58.871868 -4.299865 -4.951172 -2.119140 74.511360 23.701174 -0.800781 -6.875136 -11.943359 5.097657 -5.790148 -28.300781 -6.035156 -15.439453 29.218750 7.724609 -14.988922 -8.154297 1.308594 24.980244 -27.871090 -43.300781 -64.684433 -85.048828 -2.470703 -86.708588 17.783203 17.080078 5.325135 37.255859 10.107423 24.988522 33.242188 37.412109 -50.677662 72.216797 2.490235 -87.129333 -14.482421 2.587891 -0.858934 -27.333708 11.796732 16.405724 41.684898 -2.890119 -12.391578 -31.806225 3.313294 -10.424525 -55.816128 -1.288707 -0.504033 105.350998 -1.669459 12.925793 -17.595816 7.950795 14.426466 
89.605911 59.555588 -4.192809 -6.513672 -1.582031 74.335670 23.701174 -0.800781 -6.875136 -11.943359 5.097657 -5.790148 -28.300781 -6.035156 -15.439453 29.218750 7.724609 -14.988922 -8.857422 3.369141 24.979893 -28.378904 -43.144527 -65.231285 -86.787109 -2.470703 -86.669525 17.783203 17.080078 5.325135 36.406250 12.031250 24.978432 33.535156 37.578125 -48.695217 71.513672 2.509766 -87.139099 -14.482421 2.587891 -0.858934 -24.800972 12.945750 16.227623 39.192329 -3.173007 -12.333484 -31.792820 3.353792 -10.347034 -59.477303 0.663800 -1.872431 105.972588 -1.818196 14.312364 -17.913322 7.969062 14.654214 
89.965462 60.146740 -4.052847 -7.929687 -1.064453 74.296692 23.701174 -0.800781 -6.875136 -11.943359 5.097657 -5.790148 -28.300781 -6.035156 -15.439453 29.218750 7.724609 -14.988922 -10.048828 5.498047 24.979532 -29.257813 -42.656254 -65.602318 -88.369141 -2.470703 -86.640205 17.783203 17.080078 5.325135 35.312500 14.042969 24.978096 33.867188 37.548828 -46.761627 70.966797 2.490234 -87.129333 -14.482421 2.587891 -0.858934 -22.321499 13.971586 16.376551 37.196026 -3.182935 -12.737530 -31.756838 3.359573 -10.167166 -62.270248 2.245713 -3.150537 104.661095 -1.709622 16.881573 -17.921816 7.640768 14.634618 
90.348076 60.618435 -3.898646 -8.994141 -0.722656 74.638672 23.701174 -0.800781 -6.875136 -11.943359 5.097657 -5.790148 -28.300781 -6.035156 -15.439453 29.218750 7.724609 -14.988922 -11.269531 6.953350 24.978624 -30.263670 -42.138672 -65.133507 -89.970703 -2.470703 -86.620697 17.783203 17.080078 5.325135 34.052738 15.419922 24.987637 34.335938 37.724609 -45.023319 70.791016 2.509766 -87.158630 -14.482421 2.587891 -0.858934 -20.368824 14.655361 16.064445 35.835781 -3.171947 -12.610800 -31.830580 3.305104 -10.219914 -64.150734 3.661642 -4.099565 101.811485 -1.465246 18.897270 -17.858170 7.796599 14.560157 
90.763000 60.959324 -3.721712 -9.687500 -0.361328 75.097595 23.701174 -0.800781 -6.875136 -11.943359 5.097657 -5.790148 -28.300781 -6.035156 -15.439453 29.218750 7.724609 -14.988922 -12.373047 8.583984 24.979012 -31.777342 -41.796875 -63.893230 -91.708984 -2.470703 -86.581612 17.783203 17.080078 5.325135 32.910156 16.406252 24.977711 34.990234 37.363281 -43.300781 70.966797 2.490234 -87.129333 -14.482421 2.587891 -0.858934 -18.911610 15.111098 15.944098 34.364532 -3.358062 -13.104033 -31.611795 3.426711 -10.291945 -64.824417 4.530617 -4.693603 98.557266 -1.277977 21.688610 -17.916384 7.702956 14.459384 
91.213699 61.172771 -3.514034 -10.048828 -0.361328 75.800720 23.701174 -0.800781 -6.875136 -11.943359 5.097657 -5.790148 -28.300781 -6.035156 -15.439453 29.218750 7.724609 -14.988922 -13.300780 9.667969 24.988592 -33.466797 -41.464844 -61.666630 -93.291016 -2.470703 -86.552345 17.783203 17.080078 5.325135 32.011719 17.109379 24.977596 35.673828 37.021488 -42.015606 71.513672 2.509766 -87.139099 -14.482421 2.587891 -0.858934 -18.071442 15.315372 15.645288 33.632000 -3.235435 -13.541527 -31.244806 3.452955 -10.096075 -64.994293 5.038765 -4.657590 95.357552 -0.936847 23.258987 -17.741844 7.583324 14.623007 
91.707924 61.294556 -3.262612 -10.224608 -0.175781 76.669891 23.701174 -0.800781 -6.875136 -11.943359 5.097657 -5.790148 -28.300781 -6.035156 -15.439453 29.218750 7.724609 -14.988922 -13.964844 10.781250 24.978640 -35.458981 -41.298828 -59.215431 -94.716797 -2.470703 -86.552345 17.783203 17.080078 5.325135 31.103518 17.382813 24.977552 36.689453 36.328125 -40.668045 72.216797 2.490235 -87.129333 -14.482421 2.587891 -0.858934 -17.360538 15.474492 14.641068 33.313213 -3.420432 -13.580664 -31.456478 3.440423 -10.280965 -64.456093 5.575878 -4.669114 92.709953 -0.760028 23.797987 -17.736977 7.653866 14.431737 
92.233543 61.378876 -2.960881 -10.400392 0.000000 77.490234 23.701174 -0.800781 -6.875136 -11.943359 5.097657 -5.790148 -28.300781 -6.035156 -15.439453 29.218750 7.724609 -14.988922 -14.462890 11.748048 24.978477 -37.656250 -41.162109 -56.621094 -95.751953 -2.470703 -86.513283 17.783203 17.080078 5.325135 30.458986 17.197268 24.987345 38.398434 35.654297 -39.316406 73.251953 2.490235 -87.090263 -14.482421 2.587891 -0.858934 -16.444469 15.272166 13.650656 32.612797 -3.347032 -13.511572 -31.439552 3.513519 -10.250807 -63.215874 6.259058 -4.693773 91.152802 -0.762015 23.213095 -17.841131 7.602694 14.216412 
92.764717 61.509541 -2.613860 -10.400392 0.000000 78.564445 23.701174 -0.800781 -6.875136 -11.943359 5.097657 -5.790148 -28.300781 -6.035156 -15.439453 29.218750 7.724609 -14.988922 -15.068358 12.392579 24.978371 -40.000000 -40.673828 -54.547379 -96.445313 -2.470703 -86.493721 17.783203 17.080078 5.325135 30.146484 16.933594 24.977623 40.449219 34.843754 -37.988277 74.501953 2.480469 -87.090263 -14.482421 2.587891 -0.858934 -16.012342 15.395551 12.626028 32.102371 -3.249531 -13.401831 -31.284016 3.511858 -10.239942 -61.615704 6.425166 -4.527999 89.928688 -0.408907 22.753508 -17.705854 7.731408 14.471858 
93.274376 61.770107 -2.226286 -10.566406 0.000000 79.628906 23.701174 -0.800781 -6.875136 -11.943359 5.097657 -5.790148 -28.300781 -6.035156 -15.439453 29.218750 7.724609 -14.988922 -15.644529 13.115234 24.978251 -42.548828 -40.195313 -52.623489 -96.972656 -2.470703 -86.483948 17.783203 17.080078 5.325135 29.765627 16.474609 24.977695 42.509769 34.013672 -36.928127 75.712891 2.480469 -87.070740 -14.482421 2.587891 -0.858934 -15.260948 15.318231 11.276650 31.383842 -3.229195 -13.163122 -31.273783 3.446095 -10.100968 -59.947975 6.777004 -4.958824 88.579918 -0.203267 21.357477 -17.694643 8.076850 14.498957 
93.758560 62.227634 -1.806207 -10.732421 -0.361328 80.722595 23.701174 -0.800781 -6.875136 -11.943359 5.097657 -5.790148 -28.300781 -6.035156 -15.439453 29.218750 7.724609 -14.988922 -16.035154 13.984375 24.987875 -45.097652 -39.746094 -50.777725 -97.343750 -2.470703 -86.503510 17.783203 17.080078 5.325135 29.638670 16.630857 25.000000 44.433594 32.832031 -35.766186 76.757813 2.480469 -87.031250 -14.482421 2.587891 -0.858934 -14.784358 15.750756 9.521086 30.312632 -3.513029 -13.034266 -31.254238 3.516990 -10.247601 -58.111229 7.118756 -5.632658 86.851410 -0.193285 20.340704 -17.635681 7.751708 14.506420 
94.212479 62.906715 -1.354691 -10.917969 -0.693359 81.855347 23.701174 -0.800781 -6.875136 -11.943359 5.097657 -5.790148 -28.300781 -6.035156 -15.439453 29.218750 7.724609 -14.988922 -16.103516 14.667970 24.987761 -47.490234 -39.091797 -48.551083 -97.695313 -2.470703 -86.483978 17.783203 17.080078 5.325135 29.736328 16.826172 24.987408 46.035152 31.279299 -34.599606 77.656250 2.480469 -87.031677 -14.482421 2.587891 -0.858934 -14.569562 15.887609 8.146426 29.075586 -3.497877 -12.962876 -31.473820 3.322312 -10.158397 -55.894882 7.685363 -6.025671 84.085571 0.149519 18.806152 -17.661894 7.737562 14.447008 
94.653397 63.779037 -0.879345 -10.917969 -1.396484 83.388458 23.701174 -0.800781 -6.875136 -11.943359 5.097657 -5.790148 -28.300781 -6.035156 -15.439453 29.218750 7.724609 -14.988922 -15.937500 15.263673 25.000000 -49.521484 -38.603516 -46.099842 -97.519531 -2.470703 -86.493721 17.783203 17.080078 5.325135 29.765627 17.109379 24.997128 47.285156 29.570314 -33.335026 78.525391 2.460938 -87.001953 -14.482421 2.587891 -0.858934 -14.606616 16.617075 7.548347 27.982994 -3.394792 -14.231067 -31.646797 3.305243 -10.195312 -53.688049 8.017168 -6.491195 80.760292 0.168272 17.615217 -17.610464 7.808157 14.524889 
95.092140 64.786911 -0.385485 -10.917969 -2.080078 85.107063 23.701174 -0.800781 -6.875136 -11.943359 5.097657 -5.790148 -28.300781 -6.035156 -15.439453 29.218750 7.724609 -14.988922 -15.761717 15.361328 24.977880 -51.201172 -38.300781 -43.502148 -96.972656 -2.470703 -86.483948 17.783203 17.080078 5.325135 29.697266 17.402346 24.977547 48.388672 27.470701 -32.339245 79.238281 2.460938 -87.012146 -14.482421 2.587891 -0.858934 -15.464372 17.308289 7.273458 27.556316 -3.462604 -15.448845 -31.614651 3.420441 -10.110001 -51.154949 8.202422 -6.638472 76.642769 0.531497 15.874085 -17.777153 7.698215 14.296373 
95.531136 65.859154 0.108357 -10.761720 -2.783203 87.529297 23.701174 -0.800781 -6.875136 -11.943359 5.097657 -5.790148 -28.300781 -6.035156 -15.439453 29.218750 7.724609 -14.988922 -15.595702 15.205080 24.977905 -52.216797 -37.958988 -40.992332 -96.103516 -2.470703 -86.503487 17.783203 17.080078 5.325135 29.736328 17.402344 24.997078 49.345707 25.039064 -31.851334 80.292969 2.460938 -86.992607 -14.482421 2.587891 -0.858934 -16.824446 17.937052 7.928078 29.114159 -3.395510 -17.266180 -31.653177 3.397217 -10.115532 -48.796062 8.222020 -6.722175 72.641037 0.765935 14.047340 -17.833166 7.737442 14.711576 
